# Blender v2.74 (sub 0) OBJ File: ''
# www.blender.org
mtllib quad2.mtl
o Plane
v -1.000000 1.000000 -0.000000
v -1.000000 -1.000000 0.000000
v 1.000000 1.000000 -0.000000
v 1.000000 -1.000000 0.000000
v -0.368798 1.781217 -0.000000
v 1.000000 2.016326 -0.000000
v 0.439723 2.797543 -0.000000
v -1.239313 2.912415 -0.000000
v -0.430792 3.928740 -0.000000
v 1.052627 3.992020 -0.000000
v 0.986070 5.123218 -0.000000
v 3.560841 3.992020 -0.000000
v 3.494284 5.123218 -0.000000
v 3.897394 2.995039 -0.000000
v 4.604921 3.659054 -0.000000
v 3.897394 1.565776 -0.000000
v 4.604921 1.531787 -0.000000
v 0.986070 6.214420 -2.614625
v 3.494284 6.214420 -2.614625
v 4.604921 5.085525 -3.152853
v -1.165205 5.560442 -2.553220
v -2.438017 4.011409 -2.501582
v -2.629038 1.479383 -2.902470
v -2.110719 2.702994 -3.311173
v 0.240542 5.190551 -3.303171
v 3.339649 5.190551 -3.303171
v -0.999624 4.841372 -3.002543
v -2.499231 -0.105559 -2.896291
v 3.180120 3.629116 -3.392384
v 5.101727 2.679633 -3.325996
v 3.227213 2.319792 -3.336168
v 3.718014 0.011111 -0.213060
v 4.425542 -0.022878 -0.213060
v 4.922347 1.124968 -3.539056
v 3.047833 0.765127 -3.549228
vt 0.383088 0.000002
vt 0.516861 0.000000
vt 0.516861 0.140406
vt 0.425307 0.195251
vt 0.383088 0.140408
vt 0.516861 0.211756
vt 0.479386 0.266600
vt 0.421160 0.346014
vt 0.367081 0.274666
vt 0.520382 0.350456
vt 0.688148 0.350454
vt 0.683696 0.429868
vt 0.710659 0.280462
vt 0.757983 0.327078
vt 0.710659 0.180123
vt 0.757983 0.177737
vt 0.223499 0.907502
vt 0.037481 0.943022
vt 0.005808 0.773875
vt 0.868440 0.761063
vt 0.830049 0.857907
vt 0.650308 0.796861
vt 0.191826 0.738354
vt 0.000000 0.616239
vt 0.206230 0.620516
vt 0.028900 0.501201
vt 0.938426 0.695670
vt 0.938426 0.965453
vt 0.868440 0.932466
vt 0.893997 0.657710
vt 0.868440 0.451724
vt 0.968375 0.429869
vt 0.607653 0.629481
vt 0.367081 0.644022
vt 0.401553 0.429869
vt 0.264819 0.417742
vt 0.292413 0.206502
vt 0.367081 0.266645
vt 0.349726 0.109908
vt 0.292204 0.114362
vt 0.167042 0.009809
vt 0.271694 0.000000
vt 0.354487 0.525303
vt 0.354487 0.755240
vt 0.250257 0.733235
vt 0.777332 0.059645
vt 1.000000 0.000000
vt 1.000000 0.108359
vt 0.867454 0.588173
vt 0.650901 0.679889
vt 0.252012 0.501201
vt 0.344748 0.437608
vt 0.171812 0.384699
vt 0.379106 0.735335
vt 0.624452 0.680945
vt 0.635553 0.744567
vt 0.389606 0.825394
vt 0.765837 0.130951
vt 0.988353 0.199282
vt 0.757983 0.230369
vt 0.996698 0.307992
vt 0.635553 0.534498
vt 0.636539 0.429869
vt 0.868440 0.483544
vt 0.698650 0.070757
vt 0.745975 0.068370
vt 0.096244 0.368236
vt 0.100995 0.501201
vt 0.004751 0.467929
vt 0.316502 0.758632
vt 0.350235 1.000000
vt 0.223499 1.000000
vt 0.515930 0.429869
vt 0.223499 0.547028
vt 0.882552 0.699676
vt 0.968374 0.695670
vt 0.635553 0.456160
vt 0.223499 0.501201
vt 0.766328 0.339079
vt 0.000000 0.334964
vt 0.269503 0.755240
vn 0.000000 0.000000 1.000000
vn 0.000000 0.922900 0.385100
vn 0.747300 0.613200 0.255900
vn -0.260300 0.891100 0.371900
vn -0.644000 0.547000 0.534800
vn -0.717800 0.474300 0.509700
vn -0.887700 -0.381500 0.257700
vn 0.000000 -0.940000 -0.341100
vn 0.000000 0.558000 -0.829800
vn -0.218100 0.649000 -0.728900
vn -0.487900 0.367800 -0.791600
vn -0.874800 -0.069800 0.479500
vn -0.990300 0.095400 0.100900
vn 0.976700 0.195300 0.088400
vn 0.143300 0.537300 -0.831100
vn 0.121500 0.044200 -0.991600
vn 0.166800 -0.913000 -0.372300
vn 0.675500 -0.537400 -0.504900
vn -0.979000 -0.026500 0.202000
vn -0.973300 0.082900 0.214300
vn 0.986400 -0.128000 0.103200
vn -0.006500 -0.135000 0.990800
vn -0.021100 0.138100 -0.990200
vn 0.013600 -0.042400 -0.999000
vn 0.183800 -0.950200 -0.251700
vn 0.768500 0.583000 0.263700
vn -0.534500 0.634000 0.558900
vn -0.656600 0.522300 0.544100
vn -0.684300 0.552900 0.475400
vn -0.769400 -0.592100 0.239900
vn -0.327400 0.445300 -0.833400
vn -0.491200 0.377400 -0.785000
vn -0.888100 0.000000 0.459700
vn -0.938300 -0.316700 0.139200
vn 0.989000 0.000000 0.147700
vn 0.077500 0.087500 -0.993100
vn 0.716100 -0.367500 -0.593400
vn 0.757300 -0.310600 -0.574500
vn -0.980400 0.000000 0.196900
vn -0.045300 -0.942200 -0.331900
usemtl None
s off
f 2/1/1 4/2/1 3/3/1
f 3/3/1 5/4/1 1/5/1
f 5/4/1 3/3/1 6/6/1
f 7/7/1 9/8/1 8/9/1
f 9/8/1 7/7/1 10/10/1
f 10/10/1 12/11/1 13/12/1
f 12/11/1 14/13/1 15/14/1
f 14/13/1 16/15/1 17/16/1
f 13/17/2 19/18/2 18/19/2
f 20/20/3 19/21/3 13/22/3
f 11/23/4 18/19/4 21/24/4
f 9/25/5 21/24/5 22/26/5
f 5/27/6 24/28/6 23/29/6
f 8/30/7 22/31/7 24/32/7
f 10/33/8 25/34/8 26/35/8
f 26/36/9 25/37/9 18/38/9
f 21/39/10 18/38/10 25/37/10
f 27/40/11 24/41/11 22/42/11
f 1/43/12 23/44/12 28/45/12
f 12/46/13 26/47/13 29/48/13
f 30/49/14 20/20/14 15/50/14
f 20/51/15 26/36/15 19/52/15
f 29/53/16 26/36/16 20/51/16
f 27/54/17 25/34/17 10/33/17
f 7/55/18 5/56/18 24/57/18
f 14/58/19 29/48/19 31/59/19
f 16/60/20 31/59/20 35/61/20
f 17/62/21 33/63/21 34/64/21
f 16/15/22 32/65/22 33/66/22
f 31/67/23 30/68/23 34/69/23
f 30/68/24 31/67/24 29/53/24
f 32/70/25 35/71/25 34/72/25
f 1/5/1 2/1/1 3/3/1
f 7/7/1 5/4/1 6/6/1
f 5/4/1 7/7/1 8/9/1
f 11/73/1 9/8/1 10/10/1
f 11/73/1 10/10/1 13/12/1
f 13/12/1 12/11/1 15/14/1
f 15/14/1 14/13/1 17/16/1
f 11/23/2 13/17/2 18/19/2
f 15/50/26 20/20/26 13/22/26
f 9/25/27 11/23/27 21/24/27
f 8/74/28 9/25/28 22/26/28
f 1/75/29 5/27/29 23/29/29
f 5/76/30 8/30/30 24/32/30
f 12/77/8 10/33/8 26/35/8
f 19/52/9 26/36/9 18/38/9
f 27/40/31 21/39/31 25/37/31
f 21/39/32 27/40/32 22/42/32
f 2/78/33 1/43/33 28/45/33
f 14/58/34 12/46/34 29/48/34
f 17/62/35 30/49/35 15/50/35
f 30/68/36 29/53/36 20/51/36
f 7/55/37 27/54/37 10/33/37
f 27/54/38 7/55/38 24/57/38
f 16/60/39 14/58/39 31/59/39
f 32/79/20 16/60/20 35/61/20
f 30/49/21 17/62/21 34/64/21
f 17/16/22 16/15/22 33/66/22
f 35/80/23 31/67/23 34/69/23
f 33/81/40 32/70/40 34/72/40
